<mxfile host="65bd71144e">
    <diagram id="JGKF3jAnsXC5R7CiAGKE" name="Page-1">
        <mxGraphModel dx="4330" dy="4371" grid="0" gridSize="10" guides="0" tooltips="0" connect="1" arrows="1" fold="1" page="0" pageScale="1" pageWidth="3000" pageHeight="2000" background="#ffffff" math="0" shadow="0">
            <root>
                <mxCell id="0"/>
                <mxCell id="1" parent="0"/>
                <mxCell id="31" value="tags" style="shape=table;startSize=30;container=1;collapsible=1;childLayout=tableLayout;fixedRows=1;rowLines=0;fontStyle=1;align=center;resizeLast=1;strokeColor=#36393d;fillColor=#cdeb8b;fontColor=#000000;fontSize=15;labelBackgroundColor=none;labelBorderColor=none;fontFamily=Helvetica;rounded=0;" parent="1" vertex="1">
                    <mxGeometry x="-2643" y="-3373" width="250" height="330" as="geometry">
                        <mxRectangle x="-2640" y="-3320" width="170" height="30" as="alternateBounds"/>
                    </mxGeometry>
                </mxCell>
                <mxCell id="32" value="" style="shape=partialRectangle;collapsible=0;dropTarget=0;pointerEvents=0;fillColor=#FFFFFF;points=[[0,0.5],[1,0.5]];portConstraint=eastwest;top=0;left=0;right=0;bottom=1;strokeColor=#666666;labelBackgroundColor=none;noLabel=1;fontColor=#333333;fontFamily=Helvetica;rounded=0;" parent="31" vertex="1">
                    <mxGeometry y="30" width="250" height="30" as="geometry"/>
                </mxCell>
                <mxCell id="33" value="PK" style="shape=partialRectangle;overflow=hidden;connectable=0;fillColor=none;top=1;left=1;bottom=1;right=1;fontStyle=1;fontColor=#000000;strokeColor=#000000;fontFamily=Helvetica;rounded=0;" parent="32" vertex="1">
                    <mxGeometry width="30" height="30" as="geometry">
                        <mxRectangle width="30" height="30" as="alternateBounds"/>
                    </mxGeometry>
                </mxCell>
                <mxCell id="34" value="id bigint NOT NULL " style="shape=partialRectangle;overflow=hidden;connectable=0;fillColor=none;top=1;left=1;bottom=1;right=1;align=left;spacingLeft=6;fontStyle=1;fontColor=#000000;strokeColor=#000000;noLabel=0;portConstraintRotation=0;fontFamily=Helvetica;rounded=0;" parent="32" vertex="1">
                    <mxGeometry x="30" width="220" height="30" as="geometry">
                        <mxRectangle width="220" height="30" as="alternateBounds"/>
                    </mxGeometry>
                </mxCell>
                <mxCell id="35" value="" style="shape=partialRectangle;collapsible=0;dropTarget=0;pointerEvents=0;fillColor=#FFFFFF;points=[[0,0.5],[1,0.5]];portConstraint=eastwest;top=1;left=1;right=1;bottom=1;labelBorderColor=#000000;strokeColor=#000000;labelBackgroundColor=none;fontFamily=Helvetica;rounded=0;" parent="31" vertex="1">
                    <mxGeometry y="60" width="250" height="30" as="geometry"/>
                </mxCell>
                <mxCell id="36" value="" style="shape=partialRectangle;overflow=hidden;connectable=0;fillColor=none;top=0;left=0;bottom=0;right=0;fontFamily=Helvetica;rounded=0;" parent="35" vertex="1">
                    <mxGeometry width="30" height="30" as="geometry">
                        <mxRectangle width="30" height="30" as="alternateBounds"/>
                    </mxGeometry>
                </mxCell>
                <mxCell id="37" value="name varchar(30) NOT NULL" style="shape=partialRectangle;overflow=hidden;connectable=0;fillColor=none;top=0;left=1;bottom=0;right=0;align=left;spacingLeft=6;fontColor=#000000;strokeColor=#000000;fontSize=13;fontFamily=Helvetica;rounded=0;" parent="35" vertex="1">
                    <mxGeometry x="30" width="220" height="30" as="geometry">
                        <mxRectangle width="220" height="30" as="alternateBounds"/>
                    </mxGeometry>
                </mxCell>
                <mxCell id="38" value="" style="shape=partialRectangle;collapsible=0;dropTarget=0;pointerEvents=0;fillColor=#FFFFFF;points=[[0,0.5],[1,0.5]];portConstraint=eastwest;top=1;left=1;right=1;bottom=1;labelBorderColor=#000000;strokeColor=#000000;labelBackgroundColor=none;fontFamily=Helvetica;rounded=0;" parent="31" vertex="1">
                    <mxGeometry y="90" width="250" height="30" as="geometry"/>
                </mxCell>
                <mxCell id="39" value="" style="shape=partialRectangle;overflow=hidden;connectable=0;fillColor=none;top=0;left=0;bottom=0;right=0;fontFamily=Helvetica;rounded=0;" parent="38" vertex="1">
                    <mxGeometry width="30" height="30" as="geometry">
                        <mxRectangle width="30" height="30" as="alternateBounds"/>
                    </mxGeometry>
                </mxCell>
                <mxCell id="40" value="slug varchar(30) NOT NULL" style="shape=partialRectangle;overflow=hidden;connectable=0;fillColor=none;top=0;left=1;bottom=0;right=0;align=left;spacingLeft=6;fontColor=#000000;strokeColor=#000000;fontSize=13;fontFamily=Helvetica;rounded=0;" parent="38" vertex="1">
                    <mxGeometry x="30" width="220" height="30" as="geometry">
                        <mxRectangle width="220" height="30" as="alternateBounds"/>
                    </mxGeometry>
                </mxCell>
                <mxCell id="89" value="" style="shape=partialRectangle;collapsible=0;dropTarget=0;pointerEvents=0;fillColor=#FFFFFF;points=[[0,0.5],[1,0.5]];portConstraint=eastwest;top=1;left=1;right=1;bottom=1;labelBorderColor=#000000;strokeColor=#000000;labelBackgroundColor=none;fontFamily=Helvetica;rounded=0;" parent="31" vertex="1">
                    <mxGeometry y="120" width="250" height="30" as="geometry"/>
                </mxCell>
                <mxCell id="90" value="" style="shape=partialRectangle;overflow=hidden;connectable=0;fillColor=none;top=0;left=0;bottom=0;right=0;fontFamily=Helvetica;rounded=0;" parent="89" vertex="1">
                    <mxGeometry width="30" height="30" as="geometry">
                        <mxRectangle width="30" height="30" as="alternateBounds"/>
                    </mxGeometry>
                </mxCell>
                <mxCell id="91" value="description text  " style="shape=partialRectangle;overflow=hidden;connectable=0;fillColor=none;top=0;left=1;bottom=0;right=0;align=left;spacingLeft=6;fontColor=#000000;strokeColor=#000000;fontSize=13;fontFamily=Helvetica;rounded=0;" parent="89" vertex="1">
                    <mxGeometry x="30" width="220" height="30" as="geometry">
                        <mxRectangle width="220" height="30" as="alternateBounds"/>
                    </mxGeometry>
                </mxCell>
                <mxCell id="51" value="" style="shape=partialRectangle;collapsible=0;dropTarget=0;pointerEvents=0;fillColor=#FFFFFF;points=[[0,0.5],[1,0.5]];portConstraint=eastwest;top=1;left=1;right=1;bottom=1;labelBorderColor=#000000;strokeColor=#000000;labelBackgroundColor=none;fontFamily=Helvetica;rounded=0;" parent="31" vertex="1">
                    <mxGeometry y="150" width="250" height="30" as="geometry"/>
                </mxCell>
                <mxCell id="52" value="" style="shape=partialRectangle;overflow=hidden;connectable=0;fillColor=none;top=0;left=0;bottom=0;right=0;fontFamily=Helvetica;rounded=0;" parent="51" vertex="1">
                    <mxGeometry width="30" height="30" as="geometry">
                        <mxRectangle width="30" height="30" as="alternateBounds"/>
                    </mxGeometry>
                </mxCell>
                <mxCell id="53" value="meta_tag_description varchar(255) " style="shape=partialRectangle;overflow=hidden;connectable=0;fillColor=none;top=0;left=1;bottom=0;right=0;align=left;spacingLeft=6;fontColor=#000000;strokeColor=#000000;fontSize=13;fontFamily=Helvetica;rounded=0;" parent="51" vertex="1">
                    <mxGeometry x="30" width="220" height="30" as="geometry">
                        <mxRectangle width="220" height="30" as="alternateBounds"/>
                    </mxGeometry>
                </mxCell>
                <mxCell id="54" value="" style="shape=partialRectangle;collapsible=0;dropTarget=0;pointerEvents=0;fillColor=#FFFFFF;points=[[0,0.5],[1,0.5]];portConstraint=eastwest;top=1;left=1;right=1;bottom=1;labelBorderColor=#000000;strokeColor=#000000;labelBackgroundColor=none;fontFamily=Helvetica;rounded=0;" parent="31" vertex="1">
                    <mxGeometry y="180" width="250" height="30" as="geometry"/>
                </mxCell>
                <mxCell id="55" value="" style="shape=partialRectangle;overflow=hidden;connectable=0;fillColor=none;top=0;left=0;bottom=0;right=0;fontFamily=Helvetica;rounded=0;" parent="54" vertex="1">
                    <mxGeometry width="30" height="30" as="geometry">
                        <mxRectangle width="30" height="30" as="alternateBounds"/>
                    </mxGeometry>
                </mxCell>
                <mxCell id="56" value="meta_tag_keywords varchar(255) " style="shape=partialRectangle;overflow=hidden;connectable=0;fillColor=none;top=0;left=1;bottom=0;right=0;align=left;spacingLeft=6;fontColor=#000000;strokeColor=#000000;fontSize=13;fontFamily=Helvetica;rounded=0;" parent="54" vertex="1">
                    <mxGeometry x="30" width="220" height="30" as="geometry">
                        <mxRectangle width="220" height="30" as="alternateBounds"/>
                    </mxGeometry>
                </mxCell>
                <mxCell id="385" value="" style="shape=partialRectangle;collapsible=0;dropTarget=0;pointerEvents=0;fillColor=#FFFFFF;points=[[0,0.5],[1,0.5]];portConstraint=eastwest;top=1;left=1;right=1;bottom=1;labelBorderColor=#000000;strokeColor=#000000;labelBackgroundColor=none;fontFamily=Helvetica;rounded=0;" parent="31" vertex="1">
                    <mxGeometry y="210" width="250" height="30" as="geometry"/>
                </mxCell>
                <mxCell id="386" value="" style="shape=partialRectangle;overflow=hidden;connectable=0;fillColor=none;top=0;left=0;bottom=0;right=0;fontFamily=Helvetica;rounded=0;" parent="385" vertex="1">
                    <mxGeometry width="30" height="30" as="geometry">
                        <mxRectangle width="30" height="30" as="alternateBounds"/>
                    </mxGeometry>
                </mxCell>
                <mxCell id="387" value="lang varchar(10) NOT NULL " style="shape=partialRectangle;overflow=hidden;connectable=0;fillColor=none;top=0;left=1;bottom=0;right=0;align=left;spacingLeft=6;fontColor=#000000;strokeColor=#000000;fontSize=13;fontFamily=Helvetica;rounded=0;" parent="385" vertex="1">
                    <mxGeometry x="30" width="220" height="30" as="geometry">
                        <mxRectangle width="220" height="30" as="alternateBounds"/>
                    </mxGeometry>
                </mxCell>
                <mxCell id="92" value="" style="shape=partialRectangle;collapsible=0;dropTarget=0;pointerEvents=0;fillColor=#FFFFFF;points=[[0,0.5],[1,0.5]];portConstraint=eastwest;top=1;left=1;right=1;bottom=1;labelBorderColor=#000000;strokeColor=#000000;labelBackgroundColor=none;fontFamily=Helvetica;rounded=0;" parent="31" vertex="1">
                    <mxGeometry y="240" width="250" height="30" as="geometry"/>
                </mxCell>
                <mxCell id="93" value="FK" style="shape=partialRectangle;overflow=hidden;connectable=0;fillColor=none;top=0;left=0;bottom=0;right=0;fontFamily=Helvetica;rounded=0;fontColor=#000000;" parent="92" vertex="1">
                    <mxGeometry width="30" height="30" as="geometry">
                        <mxRectangle width="30" height="30" as="alternateBounds"/>
                    </mxGeometry>
                </mxCell>
                <mxCell id="94" value="tag_img_id bigint " style="shape=partialRectangle;overflow=hidden;connectable=0;fillColor=none;top=0;left=1;bottom=0;right=0;align=left;spacingLeft=6;fontColor=#000000;strokeColor=#000000;fontSize=13;fontFamily=Helvetica;rounded=0;" parent="92" vertex="1">
                    <mxGeometry x="30" width="220" height="30" as="geometry">
                        <mxRectangle width="220" height="30" as="alternateBounds"/>
                    </mxGeometry>
                </mxCell>
                <mxCell id="108" value="" style="shape=partialRectangle;collapsible=0;dropTarget=0;pointerEvents=0;fillColor=#FFFFFF;points=[[0,0.5],[1,0.5]];portConstraint=eastwest;top=1;left=1;right=1;bottom=1;labelBorderColor=#000000;strokeColor=#000000;labelBackgroundColor=none;fontFamily=Helvetica;rounded=0;" parent="31" vertex="1">
                    <mxGeometry y="270" width="250" height="30" as="geometry"/>
                </mxCell>
                <mxCell id="109" value="FK" style="shape=partialRectangle;overflow=hidden;connectable=0;fillColor=none;top=0;left=0;bottom=0;right=0;fontFamily=Helvetica;rounded=0;fontColor=#000000;" parent="108" vertex="1">
                    <mxGeometry width="30" height="30" as="geometry">
                        <mxRectangle width="30" height="30" as="alternateBounds"/>
                    </mxGeometry>
                </mxCell>
                <mxCell id="110" value="created_by bigint " style="shape=partialRectangle;overflow=hidden;connectable=0;fillColor=none;top=0;left=1;bottom=0;right=0;align=left;spacingLeft=6;fontColor=#000000;strokeColor=#000000;fontSize=13;fontFamily=Helvetica;rounded=0;" parent="108" vertex="1">
                    <mxGeometry x="30" width="220" height="30" as="geometry">
                        <mxRectangle width="220" height="30" as="alternateBounds"/>
                    </mxGeometry>
                </mxCell>
                <mxCell id="138" value="" style="shape=partialRectangle;collapsible=0;dropTarget=0;pointerEvents=0;fillColor=#FFFFFF;points=[[0,0.5],[1,0.5]];portConstraint=eastwest;top=1;left=1;right=1;bottom=1;labelBorderColor=#000000;strokeColor=#000000;labelBackgroundColor=none;fontFamily=Helvetica;rounded=0;" parent="31" vertex="1">
                    <mxGeometry y="300" width="250" height="30" as="geometry"/>
                </mxCell>
                <mxCell id="139" value="FK" style="shape=partialRectangle;overflow=hidden;connectable=0;fillColor=none;top=0;left=0;bottom=0;right=0;fontFamily=Helvetica;rounded=0;fontColor=#000000;" parent="138" vertex="1">
                    <mxGeometry width="30" height="30" as="geometry">
                        <mxRectangle width="30" height="30" as="alternateBounds"/>
                    </mxGeometry>
                </mxCell>
                <mxCell id="140" value="updated_by bigint " style="shape=partialRectangle;overflow=hidden;connectable=0;fillColor=none;top=0;left=1;bottom=0;right=0;align=left;spacingLeft=6;fontColor=#000000;strokeColor=#000000;fontSize=13;fontFamily=Helvetica;rounded=0;" parent="138" vertex="1">
                    <mxGeometry x="30" width="220" height="30" as="geometry">
                        <mxRectangle width="220" height="30" as="alternateBounds"/>
                    </mxGeometry>
                </mxCell>
                <mxCell id="98" value="meta_infos" style="shape=table;startSize=30;container=1;collapsible=1;childLayout=tableLayout;fixedRows=1;rowLines=0;fontStyle=1;align=center;resizeLast=1;strokeColor=#36393d;fillColor=#cdeb8b;fontColor=#000000;fontSize=15;labelBackgroundColor=none;labelBorderColor=none;fontFamily=Helvetica;rounded=0;" parent="1" vertex="1">
                    <mxGeometry x="-3230" y="-2938" width="325" height="314" as="geometry">
                        <mxRectangle x="-2680" y="-2840" width="170" height="30" as="alternateBounds"/>
                    </mxGeometry>
                </mxCell>
                <mxCell id="105" value="" style="shape=partialRectangle;collapsible=0;dropTarget=0;pointerEvents=0;fillColor=#008a00;points=[[0,0.5],[1,0.5]];portConstraint=eastwest;top=0;left=0;right=0;bottom=1;strokeColor=#005700;labelBackgroundColor=none;noLabel=1;fontColor=#ffffff;fontFamily=Helvetica;rounded=0;" parent="98" vertex="1">
                    <mxGeometry y="30" width="325" height="34" as="geometry"/>
                </mxCell>
                <mxCell id="106" value="meta_key" style="shape=partialRectangle;overflow=hidden;connectable=0;fillColor=none;top=1;left=1;bottom=1;right=1;fontStyle=1;fontColor=#FFFFFF;strokeColor=#000000;fontFamily=Helvetica;rounded=0;align=center;fontSize=15;" parent="105" vertex="1">
                    <mxGeometry width="154.75" height="34" as="geometry">
                        <mxRectangle width="154.75" height="34" as="alternateBounds"/>
                    </mxGeometry>
                </mxCell>
                <mxCell id="107" value="meta_value" style="shape=partialRectangle;overflow=hidden;connectable=0;fillColor=none;top=1;left=1;bottom=1;right=1;align=left;spacingLeft=6;fontStyle=1;fontColor=#FFFFFF;strokeColor=#000000;portConstraintRotation=0;fontFamily=Helvetica;rounded=0;fontSize=15;" parent="105" vertex="1">
                    <mxGeometry x="154.75" width="170.25" height="34" as="geometry">
                        <mxRectangle width="170.25" height="34" as="alternateBounds"/>
                    </mxGeometry>
                </mxCell>
                <mxCell id="588" value="" style="shape=partialRectangle;collapsible=0;dropTarget=0;pointerEvents=0;fillColor=#FFFFFF;points=[[0,0.5],[1,0.5]];portConstraint=eastwest;top=0;left=0;right=0;bottom=1;strokeColor=#666666;labelBackgroundColor=none;noLabel=1;fontColor=#333333;fontFamily=Helvetica;rounded=0;align=left;spacingTop=2;spacingLeft=2;spacingBottom=2;spacingRight=2;" parent="98" vertex="1">
                    <mxGeometry y="64" width="325" height="50" as="geometry"/>
                </mxCell>
                <mxCell id="589" value="trending_categories" style="shape=partialRectangle;overflow=hidden;connectable=0;fillColor=none;top=1;left=1;bottom=1;right=1;fontStyle=1;fontColor=#000000;strokeColor=#000000;fontFamily=Helvetica;rounded=0;align=left;spacingLeft=2;spacingTop=2;spacingRight=2;spacingBottom=2;" parent="588" vertex="1">
                    <mxGeometry width="154.75" height="50" as="geometry">
                        <mxRectangle width="154.75" height="50" as="alternateBounds"/>
                    </mxGeometry>
                </mxCell>
                <mxCell id="590" value="array of cat ids" style="shape=partialRectangle;overflow=hidden;connectable=0;fillColor=none;top=1;left=1;bottom=1;right=1;align=left;spacingLeft=6;fontStyle=1;fontColor=#000000;strokeColor=#000000;noLabel=0;portConstraintRotation=0;fontFamily=Helvetica;rounded=0;" parent="588" vertex="1">
                    <mxGeometry x="154.75" width="170.25" height="50" as="geometry">
                        <mxRectangle width="170.25" height="50" as="alternateBounds"/>
                    </mxGeometry>
                </mxCell>
                <mxCell id="594" value="" style="shape=partialRectangle;collapsible=0;dropTarget=0;pointerEvents=0;fillColor=#FFFFFF;points=[[0,0.5],[1,0.5]];portConstraint=eastwest;top=0;left=0;right=0;bottom=1;strokeColor=#666666;labelBackgroundColor=none;noLabel=1;fontColor=#333333;fontFamily=Helvetica;rounded=0;align=left;spacingTop=3;spacingLeft=2;spacingBottom=2;spacingRight=2;" parent="98" vertex="1">
                    <mxGeometry y="114" width="325" height="50" as="geometry"/>
                </mxCell>
                <mxCell id="595" value="trending_tags" style="shape=partialRectangle;overflow=hidden;connectable=0;fillColor=none;top=1;left=1;bottom=1;right=1;fontStyle=1;fontColor=#000000;strokeColor=#000000;fontFamily=Helvetica;rounded=0;align=left;spacingLeft=2;spacingTop=2;spacingRight=2;spacingBottom=2;spacing=3;" parent="594" vertex="1">
                    <mxGeometry width="154.75" height="50" as="geometry">
                        <mxRectangle width="154.75" height="50" as="alternateBounds"/>
                    </mxGeometry>
                </mxCell>
                <mxCell id="596" value="array of tag ids" style="shape=partialRectangle;overflow=hidden;connectable=0;fillColor=none;top=1;left=1;bottom=1;right=1;align=left;spacingLeft=6;fontStyle=1;fontColor=#000000;strokeColor=#000000;noLabel=0;portConstraintRotation=0;fontFamily=Helvetica;rounded=0;" parent="594" vertex="1">
                    <mxGeometry x="154.75" width="170.25" height="50" as="geometry">
                        <mxRectangle width="170.25" height="50" as="alternateBounds"/>
                    </mxGeometry>
                </mxCell>
                <mxCell id="606" value="" style="shape=partialRectangle;collapsible=0;dropTarget=0;pointerEvents=0;fillColor=#FFFFFF;points=[[0,0.5],[1,0.5]];portConstraint=eastwest;top=0;left=0;right=0;bottom=1;strokeColor=#666666;labelBackgroundColor=none;noLabel=1;fontColor=#333333;fontFamily=Helvetica;rounded=0;align=left;spacingTop=3;spacingLeft=2;spacingBottom=2;spacingRight=2;" parent="98" vertex="1">
                    <mxGeometry y="164" width="325" height="50" as="geometry"/>
                </mxCell>
                <mxCell id="607" value="featured_posts" style="shape=partialRectangle;overflow=hidden;connectable=0;fillColor=none;top=1;left=1;bottom=1;right=1;fontStyle=1;fontColor=#000000;strokeColor=#000000;fontFamily=Helvetica;rounded=0;align=left;spacingLeft=2;spacingTop=2;spacingRight=2;spacingBottom=2;spacing=3;" parent="606" vertex="1">
                    <mxGeometry width="154.75" height="50" as="geometry">
                        <mxRectangle width="154.75" height="50" as="alternateBounds"/>
                    </mxGeometry>
                </mxCell>
                <mxCell id="608" value="array of post ids" style="shape=partialRectangle;overflow=hidden;connectable=0;fillColor=none;top=1;left=1;bottom=1;right=1;align=left;spacingLeft=6;fontStyle=1;fontColor=#000000;strokeColor=#000000;noLabel=0;portConstraintRotation=0;fontFamily=Helvetica;rounded=0;" parent="606" vertex="1">
                    <mxGeometry x="154.75" width="170.25" height="50" as="geometry">
                        <mxRectangle width="170.25" height="50" as="alternateBounds"/>
                    </mxGeometry>
                </mxCell>
                <mxCell id="609" value="" style="shape=partialRectangle;collapsible=0;dropTarget=0;pointerEvents=0;fillColor=#FFFFFF;points=[[0,0.5],[1,0.5]];portConstraint=eastwest;top=0;left=0;right=0;bottom=1;strokeColor=#666666;labelBackgroundColor=none;noLabel=1;fontColor=#333333;fontFamily=Helvetica;rounded=0;align=left;spacingTop=3;spacingLeft=2;spacingBottom=2;spacingRight=2;" parent="98" vertex="1">
                    <mxGeometry y="214" width="325" height="50" as="geometry"/>
                </mxCell>
                <mxCell id="610" value="most_read_posts" style="shape=partialRectangle;overflow=hidden;connectable=0;fillColor=none;top=1;left=1;bottom=1;right=1;fontStyle=1;fontColor=#000000;strokeColor=#000000;fontFamily=Helvetica;rounded=0;align=left;spacingLeft=2;spacingTop=2;spacingRight=2;spacingBottom=2;spacing=3;" parent="609" vertex="1">
                    <mxGeometry width="154.75" height="50" as="geometry">
                        <mxRectangle width="154.75" height="50" as="alternateBounds"/>
                    </mxGeometry>
                </mxCell>
                <mxCell id="611" value="array of post ids" style="shape=partialRectangle;overflow=hidden;connectable=0;fillColor=none;top=1;left=1;bottom=1;right=1;align=left;spacingLeft=6;fontStyle=1;fontColor=#000000;strokeColor=#000000;noLabel=0;portConstraintRotation=0;fontFamily=Helvetica;rounded=0;" parent="609" vertex="1">
                    <mxGeometry x="154.75" width="170.25" height="50" as="geometry">
                        <mxRectangle width="170.25" height="50" as="alternateBounds"/>
                    </mxGeometry>
                </mxCell>
                <mxCell id="612" value="" style="shape=partialRectangle;collapsible=0;dropTarget=0;pointerEvents=0;fillColor=#FFFFFF;points=[[0,0.5],[1,0.5]];portConstraint=eastwest;top=0;left=0;right=0;bottom=1;strokeColor=#666666;labelBackgroundColor=none;noLabel=1;fontColor=#333333;fontFamily=Helvetica;rounded=0;align=left;spacingTop=3;spacingLeft=2;spacingBottom=2;spacingRight=2;" parent="98" vertex="1">
                    <mxGeometry y="264" width="325" height="50" as="geometry"/>
                </mxCell>
                <mxCell id="613" value="breaking_posts" style="shape=partialRectangle;overflow=hidden;connectable=0;fillColor=none;top=1;left=1;bottom=1;right=1;fontStyle=1;fontColor=#000000;strokeColor=#000000;fontFamily=Helvetica;rounded=0;align=left;spacingLeft=2;spacingTop=2;spacingRight=2;spacingBottom=2;spacing=3;" parent="612" vertex="1">
                    <mxGeometry width="154.75" height="50" as="geometry">
                        <mxRectangle width="154.75" height="50" as="alternateBounds"/>
                    </mxGeometry>
                </mxCell>
                <mxCell id="614" value="array of post ids" style="shape=partialRectangle;overflow=hidden;connectable=0;fillColor=none;top=1;left=1;bottom=1;right=1;align=left;spacingLeft=6;fontStyle=1;fontColor=#000000;strokeColor=#000000;noLabel=0;portConstraintRotation=0;fontFamily=Helvetica;rounded=0;fontSize=13;" parent="612" vertex="1">
                    <mxGeometry x="154.75" width="170.25" height="50" as="geometry">
                        <mxRectangle width="170.25" height="50" as="alternateBounds"/>
                    </mxGeometry>
                </mxCell>
                <mxCell id="151" value="categories" style="shape=table;startSize=30;container=1;collapsible=1;childLayout=tableLayout;fixedRows=1;rowLines=0;fontStyle=1;align=center;resizeLast=1;strokeColor=#36393d;fillColor=#cdeb8b;fontColor=#000000;fontSize=15;labelBackgroundColor=none;labelBorderColor=none;fontFamily=Helvetica;rounded=0;" parent="1" vertex="1">
                    <mxGeometry x="-1839" y="-3394" width="250" height="390" as="geometry">
                        <mxRectangle x="-2015" y="-3507" width="170" height="30" as="alternateBounds"/>
                    </mxGeometry>
                </mxCell>
                <mxCell id="152" value="" style="shape=partialRectangle;collapsible=0;dropTarget=0;pointerEvents=0;fillColor=#FFFFFF;points=[[0,0.5],[1,0.5]];portConstraint=eastwest;top=0;left=0;right=0;bottom=1;strokeColor=#666666;labelBackgroundColor=none;noLabel=1;fontColor=#333333;fontFamily=Helvetica;rounded=0;" parent="151" vertex="1">
                    <mxGeometry y="30" width="250" height="30" as="geometry"/>
                </mxCell>
                <mxCell id="153" value="PK" style="shape=partialRectangle;overflow=hidden;connectable=0;fillColor=none;top=1;left=1;bottom=1;right=1;fontStyle=1;fontColor=#000000;strokeColor=#000000;fontFamily=Helvetica;rounded=0;" parent="152" vertex="1">
                    <mxGeometry width="32.75" height="30" as="geometry">
                        <mxRectangle width="32.75" height="30" as="alternateBounds"/>
                    </mxGeometry>
                </mxCell>
                <mxCell id="154" value="id bigint NOT NULL " style="shape=partialRectangle;overflow=hidden;connectable=0;fillColor=none;top=1;left=1;bottom=1;right=1;align=left;spacingLeft=6;fontStyle=1;fontColor=#000000;strokeColor=#000000;noLabel=0;portConstraintRotation=0;fontFamily=Helvetica;rounded=0;" parent="152" vertex="1">
                    <mxGeometry x="32.75" width="217.25" height="30" as="geometry">
                        <mxRectangle width="217.25" height="30" as="alternateBounds"/>
                    </mxGeometry>
                </mxCell>
                <mxCell id="210" value="" style="shape=partialRectangle;collapsible=0;dropTarget=0;pointerEvents=0;fillColor=#FFFFFF;points=[[0,0.5],[1,0.5]];portConstraint=eastwest;top=1;left=1;right=1;bottom=1;labelBorderColor=#000000;strokeColor=#000000;labelBackgroundColor=none;fontFamily=Helvetica;rounded=0;" parent="151" vertex="1">
                    <mxGeometry y="60" width="250" height="30" as="geometry"/>
                </mxCell>
                <mxCell id="211" value="FK" style="shape=partialRectangle;overflow=hidden;connectable=0;fillColor=none;top=0;left=0;bottom=0;right=0;fontFamily=Helvetica;rounded=0;fontColor=#000000;" parent="210" vertex="1">
                    <mxGeometry width="32.75" height="30" as="geometry">
                        <mxRectangle width="32.75" height="30" as="alternateBounds"/>
                    </mxGeometry>
                </mxCell>
                <mxCell id="212" value="parent_category_id bigint " style="shape=partialRectangle;overflow=hidden;connectable=0;fillColor=none;top=0;left=1;bottom=0;right=0;align=left;spacingLeft=6;fontColor=#000000;strokeColor=#000000;fontSize=13;fontFamily=Helvetica;rounded=0;" parent="210" vertex="1">
                    <mxGeometry x="32.75" width="217.25" height="30" as="geometry">
                        <mxRectangle width="217.25" height="30" as="alternateBounds"/>
                    </mxGeometry>
                </mxCell>
                <mxCell id="155" value="" style="shape=partialRectangle;collapsible=0;dropTarget=0;pointerEvents=0;fillColor=#FFFFFF;points=[[0,0.5],[1,0.5]];portConstraint=eastwest;top=1;left=1;right=1;bottom=1;labelBorderColor=#000000;strokeColor=#000000;labelBackgroundColor=none;fontFamily=Helvetica;rounded=0;" parent="151" vertex="1">
                    <mxGeometry y="90" width="250" height="30" as="geometry"/>
                </mxCell>
                <mxCell id="156" value="" style="shape=partialRectangle;overflow=hidden;connectable=0;fillColor=none;top=0;left=0;bottom=0;right=0;fontFamily=Helvetica;rounded=0;" parent="155" vertex="1">
                    <mxGeometry width="32.75" height="30" as="geometry">
                        <mxRectangle width="32.75" height="30" as="alternateBounds"/>
                    </mxGeometry>
                </mxCell>
                <mxCell id="157" value="name varchar(30) NOT NULL" style="shape=partialRectangle;overflow=hidden;connectable=0;fillColor=none;top=0;left=1;bottom=0;right=0;align=left;spacingLeft=6;fontColor=#000000;strokeColor=#000000;fontSize=13;fontFamily=Helvetica;rounded=0;" parent="155" vertex="1">
                    <mxGeometry x="32.75" width="217.25" height="30" as="geometry">
                        <mxRectangle width="217.25" height="30" as="alternateBounds"/>
                    </mxGeometry>
                </mxCell>
                <mxCell id="158" value="" style="shape=partialRectangle;collapsible=0;dropTarget=0;pointerEvents=0;fillColor=#FFFFFF;points=[[0,0.5],[1,0.5]];portConstraint=eastwest;top=1;left=1;right=1;bottom=1;labelBorderColor=#000000;strokeColor=#000000;labelBackgroundColor=none;fontFamily=Helvetica;rounded=0;" parent="151" vertex="1">
                    <mxGeometry y="120" width="250" height="30" as="geometry"/>
                </mxCell>
                <mxCell id="159" value="" style="shape=partialRectangle;overflow=hidden;connectable=0;fillColor=none;top=0;left=0;bottom=0;right=0;fontFamily=Helvetica;rounded=0;" parent="158" vertex="1">
                    <mxGeometry width="32.75" height="30" as="geometry">
                        <mxRectangle width="32.75" height="30" as="alternateBounds"/>
                    </mxGeometry>
                </mxCell>
                <mxCell id="160" value="slug varchar(30) NOT NULL" style="shape=partialRectangle;overflow=hidden;connectable=0;fillColor=none;top=0;left=1;bottom=0;right=0;align=left;spacingLeft=6;fontColor=#000000;strokeColor=#000000;fontSize=13;fontFamily=Helvetica;rounded=0;" parent="158" vertex="1">
                    <mxGeometry x="32.75" width="217.25" height="30" as="geometry">
                        <mxRectangle width="217.25" height="30" as="alternateBounds"/>
                    </mxGeometry>
                </mxCell>
                <mxCell id="161" value="" style="shape=partialRectangle;collapsible=0;dropTarget=0;pointerEvents=0;fillColor=#FFFFFF;points=[[0,0.5],[1,0.5]];portConstraint=eastwest;top=1;left=1;right=1;bottom=1;labelBorderColor=#000000;strokeColor=#000000;labelBackgroundColor=none;fontFamily=Helvetica;rounded=0;" parent="151" vertex="1">
                    <mxGeometry y="150" width="250" height="30" as="geometry"/>
                </mxCell>
                <mxCell id="162" value="" style="shape=partialRectangle;overflow=hidden;connectable=0;fillColor=none;top=0;left=0;bottom=0;right=0;fontFamily=Helvetica;rounded=0;" parent="161" vertex="1">
                    <mxGeometry width="32.75" height="30" as="geometry">
                        <mxRectangle width="32.75" height="30" as="alternateBounds"/>
                    </mxGeometry>
                </mxCell>
                <mxCell id="163" value="description text  " style="shape=partialRectangle;overflow=hidden;connectable=0;fillColor=none;top=0;left=1;bottom=0;right=0;align=left;spacingLeft=6;fontColor=#000000;strokeColor=#000000;fontSize=13;fontFamily=Helvetica;rounded=0;" parent="161" vertex="1">
                    <mxGeometry x="32.75" width="217.25" height="30" as="geometry">
                        <mxRectangle width="217.25" height="30" as="alternateBounds"/>
                    </mxGeometry>
                </mxCell>
                <mxCell id="164" value="" style="shape=partialRectangle;collapsible=0;dropTarget=0;pointerEvents=0;fillColor=#FFFFFF;points=[[0,0.5],[1,0.5]];portConstraint=eastwest;top=1;left=1;right=1;bottom=1;labelBorderColor=#000000;strokeColor=#000000;labelBackgroundColor=none;fontFamily=Helvetica;rounded=0;" parent="151" vertex="1">
                    <mxGeometry y="180" width="250" height="30" as="geometry"/>
                </mxCell>
                <mxCell id="165" value="" style="shape=partialRectangle;overflow=hidden;connectable=0;fillColor=none;top=0;left=0;bottom=0;right=0;fontFamily=Helvetica;rounded=0;" parent="164" vertex="1">
                    <mxGeometry width="32.75" height="30" as="geometry">
                        <mxRectangle width="32.75" height="30" as="alternateBounds"/>
                    </mxGeometry>
                </mxCell>
                <mxCell id="166" value="meta_tag_description varchar(255) " style="shape=partialRectangle;overflow=hidden;connectable=0;fillColor=none;top=0;left=1;bottom=0;right=0;align=left;spacingLeft=6;fontColor=#000000;strokeColor=#000000;fontSize=13;fontFamily=Helvetica;rounded=0;" parent="164" vertex="1">
                    <mxGeometry x="32.75" width="217.25" height="30" as="geometry">
                        <mxRectangle width="217.25" height="30" as="alternateBounds"/>
                    </mxGeometry>
                </mxCell>
                <mxCell id="450" value="" style="shape=partialRectangle;collapsible=0;dropTarget=0;pointerEvents=0;fillColor=#FFFFFF;points=[[0,0.5],[1,0.5]];portConstraint=eastwest;top=1;left=1;right=1;bottom=1;labelBorderColor=#000000;strokeColor=#000000;labelBackgroundColor=none;fontFamily=Helvetica;rounded=0;" parent="151" vertex="1">
                    <mxGeometry y="210" width="250" height="30" as="geometry"/>
                </mxCell>
                <mxCell id="451" value="" style="shape=partialRectangle;overflow=hidden;connectable=0;fillColor=none;top=0;left=0;bottom=0;right=0;fontFamily=Helvetica;rounded=0;" parent="450" vertex="1">
                    <mxGeometry width="32.75" height="30" as="geometry">
                        <mxRectangle width="32.75" height="30" as="alternateBounds"/>
                    </mxGeometry>
                </mxCell>
                <mxCell id="452" value="meta_tag_keywords varchar(255) " style="shape=partialRectangle;overflow=hidden;connectable=0;fillColor=none;top=0;left=1;bottom=0;right=0;align=left;spacingLeft=6;fontColor=#000000;strokeColor=#000000;fontSize=13;fontFamily=Helvetica;rounded=0;" parent="450" vertex="1">
                    <mxGeometry x="32.75" width="217.25" height="30" as="geometry">
                        <mxRectangle width="217.25" height="30" as="alternateBounds"/>
                    </mxGeometry>
                </mxCell>
                <mxCell id="167" value="" style="shape=partialRectangle;collapsible=0;dropTarget=0;pointerEvents=0;fillColor=#FFFFFF;points=[[0,0.5],[1,0.5]];portConstraint=eastwest;top=1;left=1;right=1;bottom=1;labelBorderColor=#000000;strokeColor=#000000;labelBackgroundColor=none;fontFamily=Helvetica;rounded=0;" parent="151" vertex="1">
                    <mxGeometry y="240" width="250" height="30" as="geometry"/>
                </mxCell>
                <mxCell id="168" value="" style="shape=partialRectangle;overflow=hidden;connectable=0;fillColor=none;top=0;left=0;bottom=0;right=0;fontFamily=Helvetica;rounded=0;" parent="167" vertex="1">
                    <mxGeometry width="32.75" height="30" as="geometry">
                        <mxRectangle width="32.75" height="30" as="alternateBounds"/>
                    </mxGeometry>
                </mxCell>
                <mxCell id="169" value="lang varchar(10) NOT NULL" style="shape=partialRectangle;overflow=hidden;connectable=0;fillColor=none;top=0;left=1;bottom=0;right=0;align=left;spacingLeft=6;fontColor=#000000;strokeColor=#000000;fontSize=13;fontFamily=Helvetica;rounded=0;" parent="167" vertex="1">
                    <mxGeometry x="32.75" width="217.25" height="30" as="geometry">
                        <mxRectangle width="217.25" height="30" as="alternateBounds"/>
                    </mxGeometry>
                </mxCell>
                <mxCell id="170" value="" style="shape=partialRectangle;collapsible=0;dropTarget=0;pointerEvents=0;fillColor=#FFFFFF;points=[[0,0.5],[1,0.5]];portConstraint=eastwest;top=1;left=1;right=1;bottom=1;labelBorderColor=#000000;strokeColor=#000000;labelBackgroundColor=none;fontFamily=Helvetica;rounded=0;" parent="151" vertex="1">
                    <mxGeometry y="270" width="250" height="30" as="geometry"/>
                </mxCell>
                <mxCell id="171" value="FK" style="shape=partialRectangle;overflow=hidden;connectable=0;fillColor=none;top=0;left=0;bottom=0;right=0;fontFamily=Helvetica;rounded=0;fontColor=#000000;" parent="170" vertex="1">
                    <mxGeometry width="32.75" height="30" as="geometry">
                        <mxRectangle width="32.75" height="30" as="alternateBounds"/>
                    </mxGeometry>
                </mxCell>
                <mxCell id="172" value="category_img_id bigint " style="shape=partialRectangle;overflow=hidden;connectable=0;fillColor=none;top=0;left=1;bottom=0;right=0;align=left;spacingLeft=6;fontColor=#000000;strokeColor=#000000;fontSize=13;fontFamily=Helvetica;rounded=0;" parent="170" vertex="1">
                    <mxGeometry x="32.75" width="217.25" height="30" as="geometry">
                        <mxRectangle width="217.25" height="30" as="alternateBounds"/>
                    </mxGeometry>
                </mxCell>
                <mxCell id="173" value="" style="shape=partialRectangle;collapsible=0;dropTarget=0;pointerEvents=0;fillColor=#FFFFFF;points=[[0,0.5],[1,0.5]];portConstraint=eastwest;top=1;left=1;right=1;bottom=1;labelBorderColor=#000000;strokeColor=#000000;labelBackgroundColor=none;fontFamily=Helvetica;rounded=0;" parent="151" vertex="1">
                    <mxGeometry y="300" width="250" height="30" as="geometry"/>
                </mxCell>
                <mxCell id="174" value="FK" style="shape=partialRectangle;overflow=hidden;connectable=0;fillColor=none;top=0;left=0;bottom=0;right=0;fontFamily=Helvetica;rounded=0;fontColor=#000000;" parent="173" vertex="1">
                    <mxGeometry width="32.75" height="30" as="geometry">
                        <mxRectangle width="32.75" height="30" as="alternateBounds"/>
                    </mxGeometry>
                </mxCell>
                <mxCell id="175" value="created_by bigint " style="shape=partialRectangle;overflow=hidden;connectable=0;fillColor=none;top=0;left=1;bottom=0;right=0;align=left;spacingLeft=6;fontColor=#000000;strokeColor=#000000;fontSize=13;fontFamily=Helvetica;rounded=0;" parent="173" vertex="1">
                    <mxGeometry x="32.75" width="217.25" height="30" as="geometry">
                        <mxRectangle width="217.25" height="30" as="alternateBounds"/>
                    </mxGeometry>
                </mxCell>
                <mxCell id="176" value="" style="shape=partialRectangle;collapsible=0;dropTarget=0;pointerEvents=0;fillColor=#FFFFFF;points=[[0,0.5],[1,0.5]];portConstraint=eastwest;top=1;left=1;right=1;bottom=1;labelBorderColor=#000000;strokeColor=#000000;labelBackgroundColor=none;fontFamily=Helvetica;rounded=0;" parent="151" vertex="1">
                    <mxGeometry y="330" width="250" height="30" as="geometry"/>
                </mxCell>
                <mxCell id="177" value="FK" style="shape=partialRectangle;overflow=hidden;connectable=0;fillColor=none;top=0;left=0;bottom=0;right=0;fontFamily=Helvetica;rounded=0;fontColor=#000000;" parent="176" vertex="1">
                    <mxGeometry width="32.75" height="30" as="geometry">
                        <mxRectangle width="32.75" height="30" as="alternateBounds"/>
                    </mxGeometry>
                </mxCell>
                <mxCell id="178" value="updated_by bigint " style="shape=partialRectangle;overflow=hidden;connectable=0;fillColor=none;top=0;left=1;bottom=0;right=0;align=left;spacingLeft=6;fontColor=#000000;strokeColor=#000000;fontSize=13;fontFamily=Helvetica;rounded=0;" parent="176" vertex="1">
                    <mxGeometry x="32.75" width="217.25" height="30" as="geometry">
                        <mxRectangle width="217.25" height="30" as="alternateBounds"/>
                    </mxGeometry>
                </mxCell>
                <mxCell id="618" value="" style="shape=partialRectangle;collapsible=0;dropTarget=0;pointerEvents=0;fillColor=#FFFFFF;points=[[0,0.5],[1,0.5]];portConstraint=eastwest;top=1;left=1;right=1;bottom=1;labelBorderColor=#000000;strokeColor=#000000;labelBackgroundColor=none;fontFamily=Helvetica;rounded=0;" parent="151" vertex="1">
                    <mxGeometry y="360" width="250" height="30" as="geometry"/>
                </mxCell>
                <mxCell id="619" value="" style="shape=partialRectangle;overflow=hidden;connectable=0;fillColor=none;top=0;left=0;bottom=0;right=0;fontFamily=Helvetica;rounded=0;fontColor=#000000;" parent="618" vertex="1">
                    <mxGeometry width="32.75" height="30" as="geometry">
                        <mxRectangle width="32.75" height="30" as="alternateBounds"/>
                    </mxGeometry>
                </mxCell>
                <mxCell id="620" value="post_type varchar(20) NOT NULL" style="shape=partialRectangle;overflow=hidden;connectable=0;fillColor=none;top=0;left=1;bottom=0;right=0;align=left;spacingLeft=6;fontColor=#000000;strokeColor=#000000;fontSize=13;fontFamily=Helvetica;rounded=0;" parent="618" vertex="1">
                    <mxGeometry x="32.75" width="217.25" height="30" as="geometry">
                        <mxRectangle width="217.25" height="30" as="alternateBounds"/>
                    </mxGeometry>
                </mxCell>
                <mxCell id="257" value="posts" style="shape=table;startSize=30;container=1;collapsible=1;childLayout=tableLayout;fixedRows=1;rowLines=0;fontStyle=1;align=center;resizeLast=1;strokeColor=#36393d;fillColor=#cdeb8b;fontColor=#000000;fontSize=15;labelBackgroundColor=none;labelBorderColor=none;fontFamily=Helvetica;rounded=0;" parent="1" vertex="1">
                    <mxGeometry x="-2355" y="-2678" width="250" height="420" as="geometry">
                        <mxRectangle x="-2740" y="-3680" width="170" height="30" as="alternateBounds"/>
                    </mxGeometry>
                </mxCell>
                <mxCell id="258" value="" style="shape=partialRectangle;collapsible=0;dropTarget=0;pointerEvents=0;fillColor=#FFFFFF;points=[[0,0.5],[1,0.5]];portConstraint=eastwest;top=0;left=0;right=0;bottom=1;strokeColor=#666666;labelBackgroundColor=none;noLabel=1;fontColor=#333333;fontFamily=Helvetica;rounded=0;" parent="257" vertex="1">
                    <mxGeometry y="30" width="250" height="30" as="geometry"/>
                </mxCell>
                <mxCell id="259" value="PK" style="shape=partialRectangle;overflow=hidden;connectable=0;fillColor=none;top=1;left=1;bottom=1;right=1;fontStyle=1;fontColor=#000000;strokeColor=#000000;fontFamily=Helvetica;rounded=0;" parent="258" vertex="1">
                    <mxGeometry width="30" height="30" as="geometry">
                        <mxRectangle width="30" height="30" as="alternateBounds"/>
                    </mxGeometry>
                </mxCell>
                <mxCell id="260" value="id bigint NOT NULL " style="shape=partialRectangle;overflow=hidden;connectable=0;fillColor=none;top=1;left=1;bottom=1;right=1;align=left;spacingLeft=6;fontStyle=1;fontColor=#000000;strokeColor=#000000;noLabel=0;portConstraintRotation=0;fontFamily=Helvetica;rounded=0;" parent="258" vertex="1">
                    <mxGeometry x="30" width="220" height="30" as="geometry">
                        <mxRectangle width="220" height="30" as="alternateBounds"/>
                    </mxGeometry>
                </mxCell>
                <mxCell id="261" value="" style="shape=partialRectangle;collapsible=0;dropTarget=0;pointerEvents=0;fillColor=#FFFFFF;points=[[0,0.5],[1,0.5]];portConstraint=eastwest;top=1;left=1;right=1;bottom=1;labelBorderColor=#000000;strokeColor=#000000;labelBackgroundColor=none;fontFamily=Helvetica;rounded=0;" parent="257" vertex="1">
                    <mxGeometry y="60" width="250" height="30" as="geometry"/>
                </mxCell>
                <mxCell id="262" value="" style="shape=partialRectangle;overflow=hidden;connectable=0;fillColor=none;top=0;left=0;bottom=0;right=0;fontFamily=Helvetica;rounded=0;" parent="261" vertex="1">
                    <mxGeometry width="30" height="30" as="geometry">
                        <mxRectangle width="30" height="30" as="alternateBounds"/>
                    </mxGeometry>
                </mxCell>
                <mxCell id="263" value="title varchar(255) NOT NULL" style="shape=partialRectangle;overflow=hidden;connectable=0;fillColor=none;top=0;left=1;bottom=0;right=0;align=left;spacingLeft=6;fontColor=#000000;strokeColor=#000000;fontSize=13;fontFamily=Helvetica;rounded=0;" parent="261" vertex="1">
                    <mxGeometry x="30" width="220" height="30" as="geometry">
                        <mxRectangle width="220" height="30" as="alternateBounds"/>
                    </mxGeometry>
                </mxCell>
                <mxCell id="264" value="" style="shape=partialRectangle;collapsible=0;dropTarget=0;pointerEvents=0;fillColor=#FFFFFF;points=[[0,0.5],[1,0.5]];portConstraint=eastwest;top=1;left=1;right=1;bottom=1;labelBorderColor=#000000;strokeColor=#000000;labelBackgroundColor=none;fontFamily=Helvetica;rounded=0;" parent="257" vertex="1">
                    <mxGeometry y="90" width="250" height="30" as="geometry"/>
                </mxCell>
                <mxCell id="265" value="" style="shape=partialRectangle;overflow=hidden;connectable=0;fillColor=none;top=0;left=0;bottom=0;right=0;fontFamily=Helvetica;rounded=0;" parent="264" vertex="1">
                    <mxGeometry width="30" height="30" as="geometry">
                        <mxRectangle width="30" height="30" as="alternateBounds"/>
                    </mxGeometry>
                </mxCell>
                <mxCell id="266" value="slug varchar(255) NOT NULL" style="shape=partialRectangle;overflow=hidden;connectable=0;fillColor=none;top=0;left=1;bottom=0;right=0;align=left;spacingLeft=6;fontColor=#000000;strokeColor=#000000;fontSize=13;fontFamily=Helvetica;rounded=0;" parent="264" vertex="1">
                    <mxGeometry x="30" width="220" height="30" as="geometry">
                        <mxRectangle width="220" height="30" as="alternateBounds"/>
                    </mxGeometry>
                </mxCell>
                <mxCell id="267" value="" style="shape=partialRectangle;collapsible=0;dropTarget=0;pointerEvents=0;fillColor=#FFFFFF;points=[[0,0.5],[1,0.5]];portConstraint=eastwest;top=1;left=1;right=1;bottom=1;labelBorderColor=#000000;strokeColor=#000000;labelBackgroundColor=none;fontFamily=Helvetica;rounded=0;" parent="257" vertex="1">
                    <mxGeometry y="120" width="250" height="30" as="geometry"/>
                </mxCell>
                <mxCell id="268" value="" style="shape=partialRectangle;overflow=hidden;connectable=0;fillColor=none;top=0;left=0;bottom=0;right=0;fontFamily=Helvetica;rounded=0;" parent="267" vertex="1">
                    <mxGeometry width="30" height="30" as="geometry">
                        <mxRectangle width="30" height="30" as="alternateBounds"/>
                    </mxGeometry>
                </mxCell>
                <mxCell id="269" value="meta_tag_description varchar(255)" style="shape=partialRectangle;overflow=hidden;connectable=0;fillColor=none;top=0;left=1;bottom=0;right=0;align=left;spacingLeft=6;fontColor=#000000;strokeColor=#000000;fontSize=13;fontFamily=Helvetica;rounded=0;" parent="267" vertex="1">
                    <mxGeometry x="30" width="220" height="30" as="geometry">
                        <mxRectangle width="220" height="30" as="alternateBounds"/>
                    </mxGeometry>
                </mxCell>
                <mxCell id="382" value="" style="shape=partialRectangle;collapsible=0;dropTarget=0;pointerEvents=0;fillColor=#FFFFFF;points=[[0,0.5],[1,0.5]];portConstraint=eastwest;top=1;left=1;right=1;bottom=1;labelBorderColor=#000000;strokeColor=#000000;labelBackgroundColor=none;fontFamily=Helvetica;rounded=0;" parent="257" vertex="1">
                    <mxGeometry y="150" width="250" height="30" as="geometry"/>
                </mxCell>
                <mxCell id="383" value="" style="shape=partialRectangle;overflow=hidden;connectable=0;fillColor=none;top=0;left=0;bottom=0;right=0;fontFamily=Helvetica;rounded=0;" parent="382" vertex="1">
                    <mxGeometry width="30" height="30" as="geometry">
                        <mxRectangle width="30" height="30" as="alternateBounds"/>
                    </mxGeometry>
                </mxCell>
                <mxCell id="384" value="meta_tag_keywords varchar(255)" style="shape=partialRectangle;overflow=hidden;connectable=0;fillColor=none;top=0;left=1;bottom=0;right=0;align=left;spacingLeft=6;fontColor=#000000;strokeColor=#000000;fontSize=13;fontFamily=Helvetica;rounded=0;" parent="382" vertex="1">
                    <mxGeometry x="30" width="220" height="30" as="geometry">
                        <mxRectangle width="220" height="30" as="alternateBounds"/>
                    </mxGeometry>
                </mxCell>
                <mxCell id="299" value="" style="shape=partialRectangle;collapsible=0;dropTarget=0;pointerEvents=0;fillColor=#FFFFFF;points=[[0,0.5],[1,0.5]];portConstraint=eastwest;top=1;left=1;right=1;bottom=1;labelBorderColor=#000000;strokeColor=#000000;labelBackgroundColor=none;fontFamily=Helvetica;rounded=0;" parent="257" vertex="1">
                    <mxGeometry y="180" width="250" height="30" as="geometry"/>
                </mxCell>
                <mxCell id="300" value="" style="shape=partialRectangle;overflow=hidden;connectable=0;fillColor=none;top=0;left=0;bottom=0;right=0;fontFamily=Helvetica;rounded=0;" parent="299" vertex="1">
                    <mxGeometry width="30" height="30" as="geometry">
                        <mxRectangle width="30" height="30" as="alternateBounds"/>
                    </mxGeometry>
                </mxCell>
                <mxCell id="301" value="content longtext " style="shape=partialRectangle;overflow=hidden;connectable=0;fillColor=none;top=0;left=1;bottom=0;right=0;align=left;spacingLeft=6;fontColor=#000000;strokeColor=#000000;fontSize=13;fontFamily=Helvetica;rounded=0;" parent="299" vertex="1">
                    <mxGeometry x="30" width="220" height="30" as="geometry">
                        <mxRectangle width="220" height="30" as="alternateBounds"/>
                    </mxGeometry>
                </mxCell>
                <mxCell id="302" value="" style="shape=partialRectangle;collapsible=0;dropTarget=0;pointerEvents=0;fillColor=#FFFFFF;points=[[0,0.5],[1,0.5]];portConstraint=eastwest;top=1;left=1;right=1;bottom=1;labelBorderColor=#000000;strokeColor=#000000;labelBackgroundColor=none;fontFamily=Helvetica;rounded=0;" parent="257" vertex="1">
                    <mxGeometry y="210" width="250" height="30" as="geometry"/>
                </mxCell>
                <mxCell id="303" value="" style="shape=partialRectangle;overflow=hidden;connectable=0;fillColor=none;top=0;left=0;bottom=0;right=0;fontFamily=Helvetica;rounded=0;" parent="302" vertex="1">
                    <mxGeometry width="30" height="30" as="geometry">
                        <mxRectangle width="30" height="30" as="alternateBounds"/>
                    </mxGeometry>
                </mxCell>
                <mxCell id="304" value="lang varchar(10) NOT NULL" style="shape=partialRectangle;overflow=hidden;connectable=0;fillColor=none;top=0;left=1;bottom=0;right=0;align=left;spacingLeft=6;fontColor=#000000;strokeColor=#000000;fontSize=13;fontFamily=Helvetica;rounded=0;" parent="302" vertex="1">
                    <mxGeometry x="30" width="220" height="30" as="geometry">
                        <mxRectangle width="220" height="30" as="alternateBounds"/>
                    </mxGeometry>
                </mxCell>
                <mxCell id="314" value="" style="shape=partialRectangle;collapsible=0;dropTarget=0;pointerEvents=0;fillColor=#FFFFFF;points=[[0,0.5],[1,0.5]];portConstraint=eastwest;top=1;left=1;right=1;bottom=1;labelBorderColor=#000000;strokeColor=#000000;labelBackgroundColor=none;fontFamily=Helvetica;rounded=0;" parent="257" vertex="1">
                    <mxGeometry y="240" width="250" height="30" as="geometry"/>
                </mxCell>
                <mxCell id="315" value="" style="shape=partialRectangle;overflow=hidden;connectable=0;fillColor=none;top=0;left=0;bottom=0;right=0;fontFamily=Helvetica;rounded=0;" parent="314" vertex="1">
                    <mxGeometry width="30" height="30" as="geometry">
                        <mxRectangle width="30" height="30" as="alternateBounds"/>
                    </mxGeometry>
                </mxCell>
                <mxCell id="316" value="post_status varchar(20) NOT NULL" style="shape=partialRectangle;overflow=hidden;connectable=0;fillColor=none;top=0;left=1;bottom=0;right=0;align=left;spacingLeft=6;fontColor=#000000;strokeColor=#000000;fontSize=13;fontFamily=Helvetica;rounded=0;" parent="314" vertex="1">
                    <mxGeometry x="30" width="220" height="30" as="geometry">
                        <mxRectangle width="220" height="30" as="alternateBounds"/>
                    </mxGeometry>
                </mxCell>
                <mxCell id="311" value="" style="shape=partialRectangle;collapsible=0;dropTarget=0;pointerEvents=0;fillColor=#FFFFFF;points=[[0,0.5],[1,0.5]];portConstraint=eastwest;top=1;left=1;right=1;bottom=1;labelBorderColor=#000000;strokeColor=#000000;labelBackgroundColor=none;fontFamily=Helvetica;rounded=0;" parent="257" vertex="1">
                    <mxGeometry y="270" width="250" height="30" as="geometry"/>
                </mxCell>
                <mxCell id="312" value="" style="shape=partialRectangle;overflow=hidden;connectable=0;fillColor=none;top=0;left=0;bottom=0;right=0;fontFamily=Helvetica;rounded=0;" parent="311" vertex="1">
                    <mxGeometry width="30" height="30" as="geometry">
                        <mxRectangle width="30" height="30" as="alternateBounds"/>
                    </mxGeometry>
                </mxCell>
                <mxCell id="313" value="sheduled_publish_date datetime" style="shape=partialRectangle;overflow=hidden;connectable=0;fillColor=none;top=0;left=1;bottom=0;right=0;align=left;spacingLeft=6;fontColor=#000000;strokeColor=#000000;fontSize=13;fontFamily=Helvetica;rounded=0;" parent="311" vertex="1">
                    <mxGeometry x="30" width="220" height="30" as="geometry">
                        <mxRectangle width="220" height="30" as="alternateBounds"/>
                    </mxGeometry>
                </mxCell>
                <mxCell id="379" value="" style="shape=partialRectangle;collapsible=0;dropTarget=0;pointerEvents=0;fillColor=#FFFFFF;points=[[0,0.5],[1,0.5]];portConstraint=eastwest;top=1;left=1;right=1;bottom=1;labelBorderColor=#000000;strokeColor=#000000;labelBackgroundColor=none;fontFamily=Helvetica;rounded=0;" parent="257" vertex="1">
                    <mxGeometry y="300" width="250" height="30" as="geometry"/>
                </mxCell>
                <mxCell id="380" value="" style="shape=partialRectangle;overflow=hidden;connectable=0;fillColor=none;top=0;left=0;bottom=0;right=0;fontFamily=Helvetica;rounded=0;" parent="379" vertex="1">
                    <mxGeometry width="30" height="30" as="geometry">
                        <mxRectangle width="30" height="30" as="alternateBounds"/>
                    </mxGeometry>
                </mxCell>
                <mxCell id="381" value="category_id bigint NOT NULL" style="shape=partialRectangle;overflow=hidden;connectable=0;fillColor=none;top=0;left=1;bottom=0;right=0;align=left;spacingLeft=6;fontColor=#000000;strokeColor=#000000;fontSize=13;fontFamily=Helvetica;rounded=0;" parent="379" vertex="1">
                    <mxGeometry x="30" width="220" height="30" as="geometry">
                        <mxRectangle width="220" height="30" as="alternateBounds"/>
                    </mxGeometry>
                </mxCell>
                <mxCell id="490" value="" style="shape=partialRectangle;collapsible=0;dropTarget=0;pointerEvents=0;fillColor=#FFFFFF;points=[[0,0.5],[1,0.5]];portConstraint=eastwest;top=1;left=1;right=1;bottom=1;labelBorderColor=#000000;strokeColor=#000000;labelBackgroundColor=none;fontFamily=Helvetica;rounded=0;" parent="257" vertex="1">
                    <mxGeometry y="330" width="250" height="30" as="geometry"/>
                </mxCell>
                <mxCell id="491" value="" style="shape=partialRectangle;overflow=hidden;connectable=0;fillColor=none;top=0;left=0;bottom=0;right=0;fontFamily=Helvetica;rounded=0;" parent="490" vertex="1">
                    <mxGeometry width="30" height="30" as="geometry">
                        <mxRectangle width="30" height="30" as="alternateBounds"/>
                    </mxGeometry>
                </mxCell>
                <mxCell id="492" value="author_id bigint NOT NULL" style="shape=partialRectangle;overflow=hidden;connectable=0;fillColor=none;top=0;left=1;bottom=0;right=0;align=left;spacingLeft=6;fontColor=#000000;strokeColor=#000000;fontSize=13;fontFamily=Helvetica;rounded=0;" parent="490" vertex="1">
                    <mxGeometry x="30" width="220" height="30" as="geometry">
                        <mxRectangle width="220" height="30" as="alternateBounds"/>
                    </mxGeometry>
                </mxCell>
                <mxCell id="547" value="" style="shape=partialRectangle;collapsible=0;dropTarget=0;pointerEvents=0;fillColor=#FFFFFF;points=[[0,0.5],[1,0.5]];portConstraint=eastwest;top=1;left=1;right=1;bottom=1;labelBorderColor=#000000;strokeColor=#000000;labelBackgroundColor=none;fontFamily=Helvetica;rounded=0;" parent="257" vertex="1">
                    <mxGeometry y="360" width="250" height="30" as="geometry"/>
                </mxCell>
                <mxCell id="548" value="" style="shape=partialRectangle;overflow=hidden;connectable=0;fillColor=none;top=0;left=0;bottom=0;right=0;fontFamily=Helvetica;rounded=0;" parent="547" vertex="1">
                    <mxGeometry width="30" height="30" as="geometry">
                        <mxRectangle width="30" height="30" as="alternateBounds"/>
                    </mxGeometry>
                </mxCell>
                <mxCell id="549" value="views bigint " style="shape=partialRectangle;overflow=hidden;connectable=0;fillColor=none;top=0;left=1;bottom=0;right=0;align=left;spacingLeft=6;fontColor=#000000;strokeColor=#000000;fontSize=13;fontFamily=Helvetica;rounded=0;" parent="547" vertex="1">
                    <mxGeometry x="30" width="220" height="30" as="geometry">
                        <mxRectangle width="220" height="30" as="alternateBounds"/>
                    </mxGeometry>
                </mxCell>
                <mxCell id="615" value="" style="shape=partialRectangle;collapsible=0;dropTarget=0;pointerEvents=0;fillColor=#FFFFFF;points=[[0,0.5],[1,0.5]];portConstraint=eastwest;top=1;left=1;right=1;bottom=1;labelBorderColor=#000000;strokeColor=#000000;labelBackgroundColor=none;fontFamily=Helvetica;rounded=0;" parent="257" vertex="1">
                    <mxGeometry y="390" width="250" height="30" as="geometry"/>
                </mxCell>
                <mxCell id="616" value="" style="shape=partialRectangle;overflow=hidden;connectable=0;fillColor=none;top=0;left=0;bottom=0;right=0;fontFamily=Helvetica;rounded=0;" parent="615" vertex="1">
                    <mxGeometry width="30" height="30" as="geometry">
                        <mxRectangle width="30" height="30" as="alternateBounds"/>
                    </mxGeometry>
                </mxCell>
                <mxCell id="617" value="post_type varchar(50) NOT NULL" style="shape=partialRectangle;overflow=hidden;connectable=0;fillColor=none;top=0;left=1;bottom=0;right=0;align=left;spacingLeft=6;fontColor=#000000;strokeColor=#000000;fontSize=13;fontFamily=Helvetica;rounded=0;" parent="615" vertex="1">
                    <mxGeometry x="30" width="220" height="30" as="geometry">
                        <mxRectangle width="220" height="30" as="alternateBounds"/>
                    </mxGeometry>
                </mxCell>
                <mxCell id="527" value="post_tag" style="shape=table;startSize=30;container=1;collapsible=1;childLayout=tableLayout;fixedRows=1;rowLines=0;fontStyle=1;align=center;resizeLast=1;strokeColor=#36393d;fillColor=#cdeb8b;fontColor=#000000;fontSize=15;labelBackgroundColor=none;labelBorderColor=none;fontFamily=Helvetica;rounded=0;" parent="1" vertex="1">
                    <mxGeometry x="-2726" y="-2848" width="250" height="90" as="geometry">
                        <mxRectangle x="-2740" y="-3680" width="170" height="30" as="alternateBounds"/>
                    </mxGeometry>
                </mxCell>
                <mxCell id="528" value="" style="shape=partialRectangle;collapsible=0;dropTarget=0;pointerEvents=0;fillColor=#FFFFFF;points=[[0,0.5],[1,0.5]];portConstraint=eastwest;top=0;left=0;right=0;bottom=1;strokeColor=#666666;labelBackgroundColor=none;noLabel=1;fontColor=#333333;fontFamily=Helvetica;rounded=0;" parent="527" vertex="1">
                    <mxGeometry y="30" width="250" height="30" as="geometry"/>
                </mxCell>
                <mxCell id="529" value="FK" style="shape=partialRectangle;overflow=hidden;connectable=0;fillColor=none;top=1;left=1;bottom=1;right=1;fontStyle=1;fontColor=#000000;strokeColor=#000000;fontFamily=Helvetica;rounded=0;" parent="528" vertex="1">
                    <mxGeometry width="30" height="30" as="geometry">
                        <mxRectangle width="30" height="30" as="alternateBounds"/>
                    </mxGeometry>
                </mxCell>
                <mxCell id="530" value="post_id bigint NOT NULL " style="shape=partialRectangle;overflow=hidden;connectable=0;fillColor=none;top=1;left=1;bottom=1;right=1;align=left;spacingLeft=6;fontStyle=1;fontColor=#000000;strokeColor=#000000;noLabel=0;portConstraintRotation=0;fontFamily=Helvetica;rounded=0;" parent="528" vertex="1">
                    <mxGeometry x="30" width="220" height="30" as="geometry">
                        <mxRectangle width="220" height="30" as="alternateBounds"/>
                    </mxGeometry>
                </mxCell>
                <mxCell id="541" value="" style="shape=partialRectangle;collapsible=0;dropTarget=0;pointerEvents=0;fillColor=#FFFFFF;points=[[0,0.5],[1,0.5]];portConstraint=eastwest;top=0;left=0;right=0;bottom=1;strokeColor=#666666;labelBackgroundColor=none;noLabel=1;fontColor=#333333;fontFamily=Helvetica;rounded=0;" parent="527" vertex="1">
                    <mxGeometry y="60" width="250" height="30" as="geometry"/>
                </mxCell>
                <mxCell id="542" value="FK" style="shape=partialRectangle;overflow=hidden;connectable=0;fillColor=none;top=1;left=1;bottom=1;right=1;fontStyle=1;fontColor=#000000;strokeColor=#000000;fontFamily=Helvetica;rounded=0;" parent="541" vertex="1">
                    <mxGeometry width="30" height="30" as="geometry">
                        <mxRectangle width="30" height="30" as="alternateBounds"/>
                    </mxGeometry>
                </mxCell>
                <mxCell id="543" value="tag_id bigint NOT NULL " style="shape=partialRectangle;overflow=hidden;connectable=0;fillColor=none;top=1;left=1;bottom=1;right=1;align=left;spacingLeft=6;fontStyle=1;fontColor=#000000;strokeColor=#000000;noLabel=0;portConstraintRotation=0;fontFamily=Helvetica;rounded=0;" parent="541" vertex="1">
                    <mxGeometry x="30" width="220" height="30" as="geometry">
                        <mxRectangle width="220" height="30" as="alternateBounds"/>
                    </mxGeometry>
                </mxCell>
                <mxCell id="544" style="edgeStyle=orthogonalEdgeStyle;html=1;exitX=1;exitY=0.5;exitDx=0;exitDy=0;entryX=0;entryY=0.5;entryDx=0;entryDy=0;strokeColor=#000000;strokeWidth=2;endArrow=ERmandOne;endFill=0;endSize=10;startArrow=ERzeroToMany;startFill=0;startSize=10;" parent="1" source="379" target="152" edge="1">
                    <mxGeometry relative="1" as="geometry">
                        <mxPoint x="-1930" y="-3023" as="targetPoint"/>
                        <Array as="points">
                            <mxPoint x="-1914" y="-2363"/>
                            <mxPoint x="-1914" y="-3349"/>
                        </Array>
                    </mxGeometry>
                </mxCell>
                <mxCell id="545" style="edgeStyle=orthogonalEdgeStyle;html=1;exitX=0;exitY=0.5;exitDx=0;exitDy=0;entryX=1;entryY=0.5;entryDx=0;entryDy=0;strokeColor=#000000;strokeWidth=2;startArrow=ERzeroToMany;startFill=0;endArrow=ERzeroToMany;endFill=0;startSize=10;endSize=10;" parent="1" source="258" target="528" edge="1">
                    <mxGeometry relative="1" as="geometry"/>
                </mxCell>
                <mxCell id="546" style="edgeStyle=orthogonalEdgeStyle;html=1;exitX=0;exitY=0.5;exitDx=0;exitDy=0;entryX=0;entryY=0.5;entryDx=0;entryDy=0;strokeColor=#000000;strokeWidth=2;startArrow=ERzeroToMany;startFill=0;endArrow=ERzeroToMany;endFill=0;startSize=10;endSize=10;" parent="1" source="541" target="32" edge="1">
                    <mxGeometry relative="1" as="geometry">
                        <Array as="points">
                            <mxPoint x="-2828" y="-2773"/>
                            <mxPoint x="-2828" y="-3328"/>
                        </Array>
                    </mxGeometry>
                </mxCell>
                <mxCell id="553" value="comments" style="shape=table;startSize=30;container=1;collapsible=1;childLayout=tableLayout;fixedRows=1;rowLines=0;fontStyle=1;align=center;resizeLast=1;strokeColor=#36393d;fillColor=#cdeb8b;fontColor=#000000;fontSize=15;labelBackgroundColor=none;labelBorderColor=none;fontFamily=Helvetica;rounded=0;" parent="1" vertex="1">
                    <mxGeometry x="-1726" y="-2635" width="250" height="150" as="geometry">
                        <mxRectangle x="-2740" y="-3680" width="170" height="30" as="alternateBounds"/>
                    </mxGeometry>
                </mxCell>
                <mxCell id="554" value="" style="shape=partialRectangle;collapsible=0;dropTarget=0;pointerEvents=0;fillColor=#FFFFFF;points=[[0,0.5],[1,0.5]];portConstraint=eastwest;top=0;left=0;right=0;bottom=1;strokeColor=#666666;labelBackgroundColor=none;noLabel=1;fontColor=#333333;fontFamily=Helvetica;rounded=0;" parent="553" vertex="1">
                    <mxGeometry y="30" width="250" height="30" as="geometry"/>
                </mxCell>
                <mxCell id="555" value="PK" style="shape=partialRectangle;overflow=hidden;connectable=0;fillColor=none;top=1;left=1;bottom=1;right=1;fontStyle=1;fontColor=#000000;strokeColor=#000000;fontFamily=Helvetica;rounded=0;" parent="554" vertex="1">
                    <mxGeometry width="30" height="30" as="geometry">
                        <mxRectangle width="30" height="30" as="alternateBounds"/>
                    </mxGeometry>
                </mxCell>
                <mxCell id="556" value="id bigint NOT NULL " style="shape=partialRectangle;overflow=hidden;connectable=0;fillColor=none;top=1;left=1;bottom=1;right=1;align=left;spacingLeft=6;fontStyle=1;fontColor=#000000;strokeColor=#000000;noLabel=0;portConstraintRotation=0;fontFamily=Helvetica;rounded=0;" parent="554" vertex="1">
                    <mxGeometry x="30" width="220" height="30" as="geometry">
                        <mxRectangle width="220" height="30" as="alternateBounds"/>
                    </mxGeometry>
                </mxCell>
                <mxCell id="557" value="" style="shape=partialRectangle;collapsible=0;dropTarget=0;pointerEvents=0;fillColor=#FFFFFF;points=[[0,0.5],[1,0.5]];portConstraint=eastwest;top=1;left=1;right=1;bottom=1;labelBorderColor=#000000;strokeColor=#000000;labelBackgroundColor=none;fontFamily=Helvetica;rounded=0;" parent="553" vertex="1">
                    <mxGeometry y="60" width="250" height="30" as="geometry"/>
                </mxCell>
                <mxCell id="558" value="" style="shape=partialRectangle;overflow=hidden;connectable=0;fillColor=none;top=0;left=0;bottom=0;right=0;fontFamily=Helvetica;rounded=0;" parent="557" vertex="1">
                    <mxGeometry width="30" height="30" as="geometry">
                        <mxRectangle width="30" height="30" as="alternateBounds"/>
                    </mxGeometry>
                </mxCell>
                <mxCell id="559" value="text text NOT NULL" style="shape=partialRectangle;overflow=hidden;connectable=0;fillColor=none;top=0;left=1;bottom=0;right=0;align=left;spacingLeft=6;fontColor=#000000;strokeColor=#000000;fontSize=13;fontFamily=Helvetica;rounded=0;" parent="557" vertex="1">
                    <mxGeometry x="30" width="220" height="30" as="geometry">
                        <mxRectangle width="220" height="30" as="alternateBounds"/>
                    </mxGeometry>
                </mxCell>
                <mxCell id="560" value="" style="shape=partialRectangle;collapsible=0;dropTarget=0;pointerEvents=0;fillColor=#FFFFFF;points=[[0,0.5],[1,0.5]];portConstraint=eastwest;top=1;left=1;right=1;bottom=1;labelBorderColor=#000000;strokeColor=#000000;labelBackgroundColor=none;fontFamily=Helvetica;rounded=0;" parent="553" vertex="1">
                    <mxGeometry y="90" width="250" height="30" as="geometry"/>
                </mxCell>
                <mxCell id="561" value="FK" style="shape=partialRectangle;overflow=hidden;connectable=0;fillColor=none;top=0;left=0;bottom=0;right=0;fontFamily=Helvetica;rounded=0;fontColor=#000000;" parent="560" vertex="1">
                    <mxGeometry width="30" height="30" as="geometry">
                        <mxRectangle width="30" height="30" as="alternateBounds"/>
                    </mxGeometry>
                </mxCell>
                <mxCell id="562" value="user_id bigint NOT NULL" style="shape=partialRectangle;overflow=hidden;connectable=0;fillColor=none;top=0;left=1;bottom=0;right=0;align=left;spacingLeft=6;fontColor=#000000;strokeColor=#000000;fontSize=13;fontFamily=Helvetica;rounded=0;" parent="560" vertex="1">
                    <mxGeometry x="30" width="220" height="30" as="geometry">
                        <mxRectangle width="220" height="30" as="alternateBounds"/>
                    </mxGeometry>
                </mxCell>
                <mxCell id="563" value="" style="shape=partialRectangle;collapsible=0;dropTarget=0;pointerEvents=0;fillColor=#FFFFFF;points=[[0,0.5],[1,0.5]];portConstraint=eastwest;top=1;left=1;right=1;bottom=1;labelBorderColor=#000000;strokeColor=#000000;labelBackgroundColor=none;fontFamily=Helvetica;rounded=0;" parent="553" vertex="1">
                    <mxGeometry y="120" width="250" height="30" as="geometry"/>
                </mxCell>
                <mxCell id="564" value="FK" style="shape=partialRectangle;overflow=hidden;connectable=0;fillColor=none;top=0;left=0;bottom=0;right=0;fontFamily=Helvetica;rounded=0;fontColor=#000000;" parent="563" vertex="1">
                    <mxGeometry width="30" height="30" as="geometry">
                        <mxRectangle width="30" height="30" as="alternateBounds"/>
                    </mxGeometry>
                </mxCell>
                <mxCell id="565" value="post_id bigint NOT NULL" style="shape=partialRectangle;overflow=hidden;connectable=0;fillColor=none;top=0;left=1;bottom=0;right=0;align=left;spacingLeft=6;fontColor=#000000;strokeColor=#000000;fontSize=13;fontFamily=Helvetica;rounded=0;" parent="563" vertex="1">
                    <mxGeometry x="30" width="220" height="30" as="geometry">
                        <mxRectangle width="220" height="30" as="alternateBounds"/>
                    </mxGeometry>
                </mxCell>
                <mxCell id="566" style="edgeStyle=orthogonalEdgeStyle;html=1;exitX=0;exitY=0.5;exitDx=0;exitDy=0;entryX=1;entryY=0.5;entryDx=0;entryDy=0;strokeColor=#000000;strokeWidth=2;fontColor=#000000;startArrow=ERzeroToMany;startFill=0;endArrow=ERmandOne;endFill=0;startSize=10;endSize=10;" parent="1" source="563" target="258" edge="1">
                    <mxGeometry relative="1" as="geometry">
                        <Array as="points">
                            <mxPoint x="-2021" y="-2500"/>
                            <mxPoint x="-2021" y="-2633"/>
                        </Array>
                    </mxGeometry>
                </mxCell>
                <mxCell id="621" value="example table" style="shape=table;startSize=30;container=1;collapsible=1;childLayout=tableLayout;fixedRows=1;rowLines=0;fontStyle=1;align=center;resizeLast=1;strokeColor=#36393d;fillColor=#cdeb8b;fontColor=#000000;fontSize=15;labelBackgroundColor=none;labelBorderColor=none;fontFamily=Helvetica;rounded=0;" parent="1" vertex="1">
                    <mxGeometry x="-2723" y="-3615" width="250" height="120" as="geometry">
                        <mxRectangle x="-2740" y="-3680" width="170" height="30" as="alternateBounds"/>
                    </mxGeometry>
                </mxCell>
                <mxCell id="622" value="" style="shape=partialRectangle;collapsible=0;dropTarget=0;pointerEvents=0;fillColor=#FFFFFF;points=[[0,0.5],[1,0.5]];portConstraint=eastwest;top=0;left=0;right=0;bottom=1;strokeColor=#666666;labelBackgroundColor=none;noLabel=1;fontColor=#333333;fontFamily=Helvetica;rounded=0;" parent="621" vertex="1">
                    <mxGeometry y="30" width="250" height="30" as="geometry"/>
                </mxCell>
                <mxCell id="623" value="PK" style="shape=partialRectangle;overflow=hidden;connectable=0;fillColor=none;top=1;left=1;bottom=1;right=1;fontStyle=1;fontColor=#000000;strokeColor=#000000;fontFamily=Helvetica;rounded=0;" parent="622" vertex="1">
                    <mxGeometry width="30" height="30" as="geometry">
                        <mxRectangle width="30" height="30" as="alternateBounds"/>
                    </mxGeometry>
                </mxCell>
                <mxCell id="624" value="id bigint NOT NULL " style="shape=partialRectangle;overflow=hidden;connectable=0;fillColor=none;top=1;left=1;bottom=1;right=1;align=left;spacingLeft=6;fontStyle=1;fontColor=#000000;strokeColor=#000000;noLabel=0;portConstraintRotation=0;fontFamily=Helvetica;rounded=0;" parent="622" vertex="1">
                    <mxGeometry x="30" width="220" height="30" as="geometry">
                        <mxRectangle width="220" height="30" as="alternateBounds"/>
                    </mxGeometry>
                </mxCell>
                <mxCell id="625" value="" style="shape=partialRectangle;collapsible=0;dropTarget=0;pointerEvents=0;fillColor=#FFFFFF;points=[[0,0.5],[1,0.5]];portConstraint=eastwest;top=1;left=1;right=1;bottom=1;labelBorderColor=#000000;strokeColor=#000000;labelBackgroundColor=none;fontFamily=Helvetica;rounded=0;" parent="621" vertex="1">
                    <mxGeometry y="60" width="250" height="30" as="geometry"/>
                </mxCell>
                <mxCell id="626" value="" style="shape=partialRectangle;overflow=hidden;connectable=0;fillColor=none;top=0;left=0;bottom=0;right=0;fontFamily=Helvetica;rounded=0;" parent="625" vertex="1">
                    <mxGeometry width="30" height="30" as="geometry">
                        <mxRectangle width="30" height="30" as="alternateBounds"/>
                    </mxGeometry>
                </mxCell>
                <mxCell id="627" value="name varchar(50) NOT NULL" style="shape=partialRectangle;overflow=hidden;connectable=0;fillColor=none;top=0;left=1;bottom=0;right=0;align=left;spacingLeft=6;fontColor=#000000;strokeColor=#000000;fontSize=13;fontFamily=Helvetica;rounded=0;" parent="625" vertex="1">
                    <mxGeometry x="30" width="220" height="30" as="geometry">
                        <mxRectangle width="220" height="30" as="alternateBounds"/>
                    </mxGeometry>
                </mxCell>
                <mxCell id="628" value="" style="shape=partialRectangle;collapsible=0;dropTarget=0;pointerEvents=0;fillColor=#FFFFFF;points=[[0,0.5],[1,0.5]];portConstraint=eastwest;top=1;left=1;right=1;bottom=1;labelBorderColor=#000000;strokeColor=#000000;labelBackgroundColor=none;fontFamily=Helvetica;rounded=0;" parent="621" vertex="1">
                    <mxGeometry y="90" width="250" height="30" as="geometry"/>
                </mxCell>
                <mxCell id="629" value="" style="shape=partialRectangle;overflow=hidden;connectable=0;fillColor=none;top=0;left=0;bottom=0;right=0;fontFamily=Helvetica;rounded=0;" parent="628" vertex="1">
                    <mxGeometry width="30" height="30" as="geometry">
                        <mxRectangle width="30" height="30" as="alternateBounds"/>
                    </mxGeometry>
                </mxCell>
                <mxCell id="630" value="slug varchar(50) NOT NULL" style="shape=partialRectangle;overflow=hidden;connectable=0;fillColor=none;top=0;left=1;bottom=0;right=0;align=left;spacingLeft=6;fontColor=#000000;strokeColor=#000000;fontSize=13;fontFamily=Helvetica;rounded=0;" parent="628" vertex="1">
                    <mxGeometry x="30" width="220" height="30" as="geometry">
                        <mxRectangle width="220" height="30" as="alternateBounds"/>
                    </mxGeometry>
                </mxCell>
                <mxCell id="644" value="&lt;font style=&quot;font-size: 14px;&quot;&gt;&lt;b&gt;post_types&lt;/b&gt;&lt;/font&gt;" style="swimlane;fontStyle=0;childLayout=stackLayout;horizontal=1;startSize=33;fillColor=#6a00ff;horizontalStack=0;resizeParent=1;resizeParentMax=0;resizeLast=0;collapsible=1;marginBottom=0;html=1;fontSize=13;fontColor=#ffffff;strokeColor=#3700CC;align=center;" parent="1" vertex="1">
                    <mxGeometry x="-3024" y="-3619" width="183" height="162" as="geometry">
                        <mxRectangle x="-3042" y="-3608" width="109" height="33" as="alternateBounds"/>
                    </mxGeometry>
                </mxCell>
                <mxCell id="645" value="article" style="text;strokeColor=#000000;fillColor=none;align=center;verticalAlign=top;spacingLeft=4;spacingRight=4;overflow=hidden;rotatable=0;points=[[0,0.5],[1,0.5]];portConstraint=eastwest;whiteSpace=wrap;html=1;fontSize=13;fontColor=#000000;" parent="644" vertex="1">
                    <mxGeometry y="33" width="183" height="26" as="geometry"/>
                </mxCell>
                <mxCell id="651" value="video" style="text;strokeColor=#000000;fillColor=none;align=center;verticalAlign=top;spacingLeft=4;spacingRight=4;overflow=hidden;rotatable=0;points=[[0,0.5],[1,0.5]];portConstraint=eastwest;whiteSpace=wrap;html=1;fontSize=13;fontColor=#000000;" parent="644" vertex="1">
                    <mxGeometry y="59" width="183" height="26" as="geometry"/>
                </mxCell>
                <mxCell id="652" value="gallery" style="text;strokeColor=#000000;fillColor=none;align=center;verticalAlign=top;spacingLeft=4;spacingRight=4;overflow=hidden;rotatable=0;points=[[0,0.5],[1,0.5]];portConstraint=eastwest;whiteSpace=wrap;html=1;fontSize=13;fontColor=#000000;" parent="644" vertex="1">
                    <mxGeometry y="85" width="183" height="25" as="geometry"/>
                </mxCell>
                <mxCell id="653" value="audio" style="text;strokeColor=#000000;fillColor=none;align=center;verticalAlign=top;spacingLeft=4;spacingRight=4;overflow=hidden;rotatable=0;points=[[0,0.5],[1,0.5]];portConstraint=eastwest;whiteSpace=wrap;html=1;fontSize=13;fontColor=#000000;" parent="644" vertex="1">
                    <mxGeometry y="110" width="183" height="26" as="geometry"/>
                </mxCell>
                <mxCell id="654" value="quiz" style="text;strokeColor=#000000;fillColor=none;align=center;verticalAlign=top;spacingLeft=4;spacingRight=4;overflow=hidden;rotatable=0;points=[[0,0.5],[1,0.5]];portConstraint=eastwest;whiteSpace=wrap;html=1;fontSize=13;fontColor=#000000;" parent="644" vertex="1">
                    <mxGeometry y="136" width="183" height="26" as="geometry"/>
                </mxCell>
            </root>
        </mxGraphModel>
    </diagram>
</mxfile>